<?xml version="1.0" encoding="UTF-8"?>
<svg version="1.1" xmlns="http://www.w3.org/2000/svg" width="177" height="176">
<path d="M0 0 C1.28854385 -0.00044815 2.57708771 -0.0008963 3.90467834 -0.00135803 C31.59605622 0.0334238 31.59605622 0.0334238 37.984375 5.04296875 C45.77436162 13.01000052 45.27963512 20.98970326 45.2590332 31.56225586 C45.26338564 32.92960385 45.26857056 34.29694941 45.27452087 35.66429138 C45.28786433 39.36267087 45.2884948 43.06094787 45.28595757 46.75934672 C45.28488479 49.85318586 45.28977903 52.94700452 45.294563 56.04083925 C45.30564188 63.34259018 45.30610458 70.64428966 45.30004883 77.94604492 C45.29400844 85.46521364 45.30632535 92.98419527 45.3276189 100.50333208 C45.34526131 106.97234661 45.35123214 113.44130173 45.34798115 119.91033942 C45.34617251 123.76816339 45.34876259 127.62585386 45.36269569 131.48365593 C45.37531271 135.11252192 45.37329367 138.74109712 45.36028481 142.36995888 C45.35680912 144.32690827 45.36806813 146.2838667 45.37985229 148.24078369 C45.33232773 156.22801575 44.94896914 162.53226517 39.609375 168.85546875 C34.30372308 173.27684535 30.14517383 175.16371613 23.24188232 175.18341064 C22.04465042 175.18912079 20.84741852 175.19483093 19.61390686 175.20071411 C18.29853439 175.20183197 16.98316193 175.20294983 15.62792969 175.20410156 C14.2299944 175.20873045 12.83206037 175.21375521 11.43412781 175.21914673 C7.63437033 175.23226743 3.83463053 175.23871524 0.03485394 175.24315739 C-2.34000448 175.24608913 -4.71485807 175.25019417 -7.08971405 175.25466156 C-14.52264072 175.26833668 -21.95555636 175.27800282 -29.38849473 175.28186345 C-37.96372094 175.286342 -46.53878758 175.30388032 -55.11396527 175.33286405 C-61.74508148 175.35449739 -68.37615284 175.36456864 -75.00730395 175.36590457 C-78.96632951 175.36695157 -82.92520507 175.37283681 -86.88419342 175.39072418 C-90.61065683 175.40723315 -94.33685795 175.4093468 -98.06334496 175.40058517 C-100.07659693 175.39945069 -102.08984032 175.4131469 -104.1030426 175.42733765 C-113.10956584 175.3858331 -119.24536028 174.43710765 -126.015625 168.04296875 C-133.08608131 157.94231687 -131.1660868 143.07197358 -131.09375 131.29296875 C-131.08890819 129.93432749 -131.08446925 128.57568476 -131.0803833 127.21704102 C-131.07016635 124.18454817 -131.05631937 121.15209639 -131.0402832 118.11962891 C-131.01689095 113.58019102 -131.00315145 109.04076135 -130.9907608 104.50128174 C-130.96156026 93.96429305 -130.9087602 83.42767969 -130.83170319 72.89093018 C-130.79181427 67.37111887 -130.75976521 61.85148237 -130.74462891 56.33154297 C-130.72947829 50.89335677 -130.69514043 45.45560234 -130.64731598 40.01760864 C-130.63257428 37.97001886 -130.62458817 35.92236801 -130.62374115 33.87472534 C-130.621372 31.03189354 -130.59432543 28.19027758 -130.56152344 25.34765625 C-130.5665538 24.51967026 -130.57158417 23.69168427 -130.57676697 22.83860779 C-130.45910961 16.23450819 -128.6223867 10.9412038 -124.1640625 5.984375 C-123.57882813 5.52933594 -122.99359375 5.07429687 -122.390625 4.60546875 C-121.50503906 3.89583984 -121.50503906 3.89583984 -120.6015625 3.171875 C-116.73810884 0.42178114 -112.88981964 0.86835029 -108.31616211 0.83764648 C-106.96146065 0.82279709 -106.96146065 0.82279709 -105.57939148 0.80764771 C-102.56727764 0.77587133 -99.55514916 0.75115712 -96.54296875 0.7265625 C-94.42769503 0.70595213 -92.31242505 0.68495471 -90.19715881 0.66358948 C-85.73391907 0.61950828 -81.27066556 0.57864476 -76.80737305 0.5402832 C-71.1887889 0.49195817 -65.5702756 0.43821287 -59.9517622 0.3823185 C-39.96820079 0.18409208 -19.98468247 0.00308899 0 0 Z " fill="#06A895" transform="translate(132.015625,-0.04296875000000001)"/>
<path d="M0 0 C0.83575058 -0.00137466 1.67150116 -0.00274933 2.53257751 -0.00416565 C3.91037636 0.00122726 3.91037636 0.00122726 5.31600952 0.00672913 C6.28190506 0.0065831 7.2478006 0.00643707 8.2429657 0.00628662 C11.44620992 0.00698514 14.64939651 0.01477474 17.85263062 0.02259827 C20.0693763 0.02446266 22.2861224 0.02588646 24.50286865 0.02688599 C30.34560274 0.03070948 36.18831208 0.04053834 42.03103638 0.05158997 C47.98979355 0.0618077 53.94855471 0.06638438 59.90731812 0.07142639 C71.60524567 0.08216074 83.30315484 0.09923516 95.00106812 0.12025452 C95.83173064 3.140541 96.64895908 6.16431088 97.46395874 9.18885803 C97.81421112 10.4614233 97.81421112 10.4614233 98.17153931 11.75969696 C100.00211107 18.59333017 100.70625498 24.97414439 100.50106812 32.05775452 C100.5049353 33.56692444 100.5049353 33.56692444 100.50888062 35.10658264 C100.21431138 58.0387973 88.99201561 78.56849867 73.56356812 94.87025452 C56.723558 110.98308238 33.34196634 118.93071519 10.27767944 118.65296936 C1.35683308 118.29125323 -9.45254175 117.15118128 -16.99893188 112.12025452 C-17.30626008 109.0530207 -17.41856428 106.18656932 -17.40298462 103.11585999 C-17.40984787 102.18232193 -17.41671112 101.24878387 -17.42378235 100.28695679 C-17.44214852 97.18696562 -17.43819681 94.08747617 -17.43252563 90.98744202 C-17.43708478 88.83469985 -17.44238954 86.68195915 -17.44841003 84.52922058 C-17.45736194 80.00807298 -17.45489678 75.48710178 -17.44497681 70.96595764 C-17.43352141 65.18219694 -17.45363558 59.39904986 -17.48289394 53.6153698 C-17.50128221 49.16455737 -17.50095758 44.71389098 -17.49525642 40.26305008 C-17.49510333 38.13168099 -17.50113751 36.00030193 -17.5135479 33.86896896 C-17.5284943 30.87926671 -17.5177513 27.89068446 -17.50064087 24.90101624 C-17.51030884 24.0258989 -17.51997681 23.15078156 -17.52993774 22.24914551 C-17.44914689 15.47739966 -15.72545656 10.15164377 -11.14736938 5.06166077 C-10.56213501 4.6066217 -9.97690063 4.15158264 -9.37393188 3.68275452 C-8.78354126 3.20966858 -8.19315063 2.73658264 -7.58486938 2.24916077 C-4.90386763 0.34076296 -3.24152456 -0.0041032 0 0 Z " fill="#00A693" transform="translate(18.998931884765625,0.8797454833984375)"/>
<path d="M0 0 C10.89 0 21.78 0 33 0 C40.48047755 32.72708929 36.64450099 66.1895405 19 95 C1.43651329 121.68784429 -25.47179695 141.43484737 -57.0222168 147.97070312 C-64.87736095 149.29828839 -72.80305809 149.39368633 -80.75 149.4375 C-82.02842773 149.4478125 -83.30685547 149.458125 -84.62402344 149.46875 C-107.74528067 149.25471933 -107.74528067 149.25471933 -112 145 C-112.0883967 142.6243148 -112.11530305 140.27791326 -112.09765625 137.90234375 C-112.0962413 137.19348526 -112.09482635 136.48462677 -112.09336853 135.75428772 C-112.08775443 133.48198288 -112.07519963 131.20977525 -112.0625 128.9375 C-112.05748681 127.40039204 -112.05292359 125.86328255 -112.04882812 124.32617188 C-112.03778042 120.55074358 -112.02050641 116.77538829 -112 113 C-111.25741943 113.20278564 -110.51483887 113.40557129 -109.74975586 113.61450195 C-108.76885986 113.88222412 -107.78796387 114.14994629 -106.77734375 114.42578125 C-105.80788818 114.69044189 -104.83843262 114.95510254 -103.83959961 115.2277832 C-102.90253174 115.48261475 -101.96546387 115.73744629 -101 116 C-100.19973389 116.21906006 -99.39946777 116.43812012 -98.57495117 116.66381836 C-77.71682514 122.09153647 -53.97037362 116.73435374 -35.71777344 106.04833984 C-18.54908851 95.5704642 -7.61200165 81.41613303 0 63 C0.47566406 61.89011719 0.47566406 61.89011719 0.9609375 60.7578125 C4.57358423 51.8513864 5.41361234 42.6614016 5.4375 33.125 C5.44136719 32.04742432 5.44523437 30.96984863 5.44921875 29.85961914 C5.29955537 19.27015538 3.00362716 10.13724166 0 0 Z " fill="#FCFEFE" transform="translate(113,0)"/>
</svg>
