<?xml version="1.0" encoding="UTF-8"?>
<svg version="1.1" xmlns="http://www.w3.org/2000/svg" width="200" height="200">
<path d="M0 0 C66 0 132 0 200 0 C200 66 200 132 200 200 C134 200 68 200 0 200 C0 134 0 68 0 0 Z " fill="#2EC0E4" transform="translate(0,0)"/>
<path d="M0 0 C1.75 0.0625 1.75 0.0625 4 1 C5.22294914 2.37973749 6.44741601 3.76312922 7.55859375 5.234375 C9.54199823 7.66391111 11.76489345 9.80068118 14 12 C41 39 41 39 43.65625 41.69140625 C46.03342939 44.10633412 46.03342939 44.10633412 49 46.4375 C52.07903881 49.06751232 54.45078401 51.8625034 57 55 C58.65402498 56.67921318 60.32241268 58.34432601 62 60 C73 71 73 71 75.65234375 73.68359375 C78.30324452 76.29920799 81.13500856 78.62266668 84 81 C86.4375 83.0625 86.4375 83.0625 88 85 C88.0078125 86.859375 88.0078125 86.859375 87 89 C84.82688175 90.57633959 82.76646169 91.88461893 80.4375 93.1875 C79.76638184 93.57623291 79.09526367 93.96496582 78.40380859 94.36547852 C76.27722455 95.59170825 74.1404256 96.79811756 72 98 C71.33919434 98.37318359 70.67838867 98.74636719 69.99755859 99.13085938 C67.37270106 100.61279243 64.74584487 102.09097843 62.11376953 103.56005859 C57.30707281 106.24584804 52.55065749 109.00777338 47.8125 111.8125 C38.68633153 117.21311236 29.48749164 122.48613935 20.25683594 127.70605469 C18.81685801 128.53165865 17.38651552 129.37446455 15.96972656 130.23925781 C12.58661231 132.28783152 11.07705948 133 7 133 C7.54817999 128.16858315 9.8217647 124.55976993 12.3125 120.5 C13.21184434 118.99663587 14.1102359 117.49270147 15.0078125 115.98828125 C15.48766602 115.1885791 15.96751953 114.38887695 16.46191406 113.56494141 C19.2276273 108.95278532 21.97144902 104.32908244 24.6875 99.6875 C25.22866455 98.78644531 25.7698291 97.88539063 26.32739258 96.95703125 C26.82134521 96.10882813 27.31529785 95.260625 27.82421875 94.38671875 C28.49070435 93.26076294 28.49070435 93.26076294 29.1706543 92.11206055 C30.1846843 89.5296721 29.93445543 88.57430672 29 86 C27.46893491 84.75311728 25.92500802 83.51791474 24.3132019 82.37731934 C13.86936087 74.98459874 1.5338883 65.61206702 -1.8626709 52.72753906 C-4.55109639 36.15822399 -3.65944253 17.56448098 -1 1 C-0.67 0.67 -0.34 0.34 0 0 Z " fill="#FBFDFD" transform="translate(48,33)"/>
<path d="M0 0 C0.58007812 0.26039062 1.16015625 0.52078125 1.7578125 0.7890625 C2.6653125 1.1396875 3.5728125 1.4903125 4.5078125 1.8515625 C5.6215625 2.315625 5.6215625 2.315625 6.7578125 2.7890625 C6.7578125 3.4490625 6.7578125 4.1090625 6.7578125 4.7890625 C7.5621875 5.0159375 8.3665625 5.2428125 9.1953125 5.4765625 C13.67066989 7.12537838 17.64502568 9.39450662 21.7578125 11.7890625 C21.7578125 13.1090625 21.7578125 14.4290625 21.7578125 15.7890625 C21.17402832 16.12115723 20.59024414 16.45325195 19.98876953 16.79541016 C17.28610335 18.33376882 14.58445543 19.87390757 11.8828125 21.4140625 C10.965 21.93613281 10.0471875 22.45820312 9.1015625 22.99609375 C8.18632812 23.51816406 7.27109375 24.04023437 6.328125 24.578125 C5.40676758 25.10051758 4.48541016 25.62291016 3.53613281 26.16113281 C1.65535294 27.26315744 -0.1996205 28.41023617 -2.02832031 29.59667969 C-2.90584961 30.16290039 -3.78337891 30.72912109 -4.6875 31.3125 C-5.46883301 31.83505371 -6.25016602 32.35760742 -7.05517578 32.89599609 C-9.2421875 33.7890625 -9.2421875 33.7890625 -11.30883789 33.13867188 C-14.73668569 30.74580123 -17.59201212 27.84983165 -20.5546875 24.9140625 C-21.21275391 24.28886719 -21.87082031 23.66367188 -22.54882812 23.01953125 C-23.47405273 22.10494141 -23.47405273 22.10494141 -24.41796875 21.171875 C-24.98427002 20.61902832 -25.55057129 20.06618164 -26.1340332 19.49658203 C-27.2421875 17.7890625 -27.2421875 17.7890625 -27.03076172 15.66650391 C-25.92697933 13.03861333 -24.53211493 12.41316581 -22.0546875 11.0390625 C-21.16136719 10.53761719 -20.26804688 10.03617188 -19.34765625 9.51953125 C-18.32285156 8.94847656 -17.29804688 8.37742187 -16.2421875 7.7890625 C-15.02758958 7.05990366 -13.81544724 6.32664274 -12.60546875 5.58984375 C-11.35956342 4.8434354 -10.11347108 4.09733912 -8.8671875 3.3515625 C-8.27268799 2.98514648 -7.67818848 2.61873047 -7.06567383 2.24121094 C-2.79891028 -0.26331212 -2.79891028 -0.26331212 0 0 Z " fill="#F8FCFC" transform="translate(155.2421875,82.2109375)"/>
<path d="M0 0 C4.47400242 -0.36275695 4.47400242 -0.36275695 6.8125 1.25 C8 3 8 3 8 7 C9.98 7.66 11.96 8.32 14 9 C14 9.66 14 10.32 14 11 C14.99 11.33 15.98 11.66 17 12 C17.6875 14.0625 17.6875 14.0625 18 16 C18.99 16 19.98 16 21 16 C23.6875 18.5 23.6875 18.5 26 21 C26 20.34 26 19.68 26 19 C28.86724686 19.57344937 29.8614515 19.8614515 32 22 C32.144375 21.0925 32.28875 20.185 32.4375 19.25 C34.49238174 14.97584598 36.6937845 14.43170742 41.00390625 12.859375 C43.18031934 12.17659478 43.18031934 12.17659478 44 10 C46.31 10 48.62 10 51 10 C48.70150751 12.29849249 46.43160643 13.47590628 43.5625 15 C40.60249397 16.57656779 37.79270331 18.13819779 35 20 C35.58110671 23.42754467 36.68553624 25.04538661 39.16015625 27.453125 C39.78857422 28.071875 40.41699219 28.690625 41.06445312 29.328125 C41.72380859 29.96234375 42.38316406 30.5965625 43.0625 31.25 C43.72572266 31.8996875 44.38894531 32.549375 45.07226562 33.21875 C46.70829317 34.8194676 48.35090912 36.41276193 50 38 C53.08654435 36.8259444 55.88559865 35.55660489 58.6875 33.8125 C59.780625 33.214375 60.87375 32.61625 62 32 C62.99 32.495 62.99 32.495 64 33 C63.34 33.99 62.68 34.98 62 36 C60.68 36 59.36 36 58 36 C57.67 37.32 57.34 38.64 57 40 C56.30132812 40.06058594 55.60265625 40.12117188 54.8828125 40.18359375 C53.97273438 40.26738281 53.06265625 40.35117188 52.125 40.4375 C51.22007812 40.51871094 50.31515625 40.59992188 49.3828125 40.68359375 C46.98889139 40.86989285 46.98889139 40.86989285 45 42 C44.67 42.99 44.34 43.98 44 45 C41.125 47.25 41.125 47.25 38 49 C37.01 48.67 36.02 48.34 35 48 C35.99 47.401875 36.98 46.80375 38 46.1875 C38.99 45.465625 39.98 44.74375 41 44 C41.33339743 40.84147279 41.33339743 40.84147279 38.875 38.625 C36.95586499 36.8727463 34.99641071 35.16367559 33 33.5 C30.15170962 31.12642468 27.60682505 28.63366001 25 26 C24.1028125 25.11441406 23.205625 24.22882813 22.28125 23.31640625 C13.86824283 14.98611123 13.86824283 14.98611123 11.3125 11.75 C8.68956192 8.63083039 5.79441264 6.12165265 2.671875 3.515625 C1 2 1 2 0 0 Z " fill="#30BEE3" transform="translate(94,77)"/>
<path d="M0 0 C6.41136364 -0.49318182 6.41136364 -0.49318182 9.3125 1.9375 C10.1478125 2.9584375 10.1478125 2.9584375 11 4 C11.66 4.33 12.32 4.66 13 5 C13.33 5.99 13.66 6.98 14 8 C14.99 8.33 15.98 8.66 17 9 C19.75 11.8125 19.75 11.8125 22 15 C21.640625 17.19921875 21.640625 17.19921875 21 19 C16.61507124 14.73502369 12.46548545 10.34080571 8.48046875 5.69921875 C7.36828828 4.42270555 6.19716986 3.19716986 5 2 C4.01 2 3.02 2 2 2 C1.84758565 9.70441273 1.74267254 17.40843524 1.67041016 25.11401367 C1.64027915 27.73395313 1.59936601 30.35379207 1.54736328 32.97338867 C1.47439309 36.74423043 1.44050461 40.51373609 1.4140625 44.28515625 C1.38309479 45.45208511 1.35212708 46.61901398 1.32022095 47.82130432 C1.31795834 53.31630833 1.38076882 56.99996148 5.03662109 61.29467773 C5.99674755 62.22585368 6.97549051 63.14016759 8 64 C3.78764536 63.1020472 0.50105313 61.60654818 -2 58 C-2.78315578 54.26799254 -2.58317305 50.64922023 -2.40234375 46.85546875 C-2.37402969 45.77171463 -2.34571564 44.68796051 -2.31654358 43.57136536 C-2.21874828 40.10851487 -2.07824413 36.64884328 -1.9375 33.1875 C-1.86772985 30.86922068 -1.80064278 28.55085896 -1.73632812 26.23242188 C-1.19603442 8.3959991 -1.19603442 8.3959991 0 0 Z " fill="#4FB6CE" transform="translate(46,32)"/>
<path d="M0 0 C5.66129431 4.69766975 10.85228904 9.74723372 16 15 C19.08654435 13.8259444 21.88559865 12.55660489 24.6875 10.8125 C26.3271875 9.9153125 26.3271875 9.9153125 28 9 C28.66 9.33 29.32 9.66 30 10 C29.01 11.485 29.01 11.485 28 13 C26.68 13 25.36 13 24 13 C23.67 14.32 23.34 15.64 23 17 C22.30132812 17.06058594 21.60265625 17.12117188 20.8828125 17.18359375 C19.97273438 17.26738281 19.06265625 17.35117188 18.125 17.4375 C17.22007812 17.51871094 16.31515625 17.59992188 15.3828125 17.68359375 C12.98889139 17.86989285 12.98889139 17.86989285 11 19 C10.67 19.99 10.34 20.98 10 22 C7.125 24.25 7.125 24.25 4 26 C3.01 25.67 2.02 25.34 1 25 C2.485 24.1028125 2.485 24.1028125 4 23.1875 C4.99 22.465625 5.98 21.74375 7 21 C7.33218192 17.99740483 7.33218192 17.99740483 5.5 16.3125 C4.7575 15.6628125 4.7575 15.6628125 4 15 C6.31 15.33 8.62 15.66 11 16 C11 15.01 11 14.02 11 13 C10.01 12.34 9.02 11.68 8 11 C8 10.34 8 9.68 8 9 C7.34 9 6.68 9 6 9 C6 8.34 6 7.68 6 7 C5.34 7 4.68 7 4 7 C4 6.34 4 5.68 4 5 C3.34 5 2.68 5 2 5 C1.34 3.35 0.68 1.7 0 0 Z " fill="#49BDD5" transform="translate(128,100)"/>
<path d="M0 0 C4.47400242 -0.36275695 4.47400242 -0.36275695 6.8125 1.25 C8 3 8 3 8 7 C9.98 7.66 11.96 8.32 14 9 C14 9.66 14 10.32 14 11 C14.99 11.33 15.98 11.66 17 12 C17.6875 14.0625 17.6875 14.0625 18 16 C18.99 16 19.98 16 21 16 C22.26962147 17.46494785 23.5341523 18.93639068 24.7265625 20.46484375 C26.26925761 22.32459583 27.99497773 23.66331848 30 25 C29.34 25 28.68 25 28 25 C28 25.66 28 26.32 28 27 C28.66 27 29.32 27 30 27 C29.67 27.66 29.34 28.32 29 29 C22.79406714 23.69674828 16.72146588 18.34949647 11.5625 12 C8.83233113 8.80370474 5.89148079 6.20266442 2.671875 3.515625 C1 2 1 2 0 0 Z " fill="#47C2D5" transform="translate(94,77)"/>
<path d="M0 0 C1.75 0.0625 1.75 0.0625 4 1 C5.73223664 2.94348501 7.39881603 4.94720004 9 7 C9.98290968 8.01680311 10.97334787 9.02738219 12 10 C9.5625 9.1875 9.5625 9.1875 7 8 C6.67 7.01 6.34 6.02 6 5 C5.01 5 4.02 5 3 5 C3 4.34 3 3.68 3 3 C2.01 3 1.02 3 0 3 C0 20.49 0 37.98 0 56 C-0.33 56 -0.66 56 -1 56 C-1.02526563 48.18547248 -1.04283105 40.37095542 -1.05493164 32.55639648 C-1.05997383 29.89558519 -1.06680736 27.23477668 -1.07543945 24.57397461 C-1.08751009 20.75894484 -1.09322929 16.94395156 -1.09765625 13.12890625 C-1.10281754 11.93100967 -1.10797882 10.7331131 -1.11329651 9.49891663 C-1.11337204 8.3978508 -1.11344757 7.29678497 -1.11352539 6.16235352 C-1.115746 5.18750504 -1.11796661 4.21265656 -1.12025452 3.20826721 C-1 1 -1 1 0 0 Z " fill="#D1FEFF" transform="translate(48,33)"/>
<path d="M0 0 C0.33 0 0.66 0 1 0 C1.00586624 0.56518845 1.01173248 1.13037689 1.01777649 1.71269226 C1.08177072 7.6016769 1.16620584 13.4901181 1.26245117 19.37866211 C1.29568055 21.57552927 1.32371866 23.7724814 1.34643555 25.96948242 C1.38001754 29.12976243 1.43233634 32.28926521 1.48828125 35.44921875 C1.49786613 36.91979988 1.49786613 36.91979988 1.50764465 38.42008972 C1.61546504 43.43454701 1.75790973 46.926301 5 51 C6.0828125 52.3921875 6.0828125 52.3921875 7.1875 53.8125 C7.785625 54.534375 8.38375 55.25625 9 56 C5.55253011 55.60221501 2.8903121 54.03803736 0.27874756 51.78921509 C-2.46139894 47.95522032 -1.58999484 43.07696954 -1.3671875 38.57421875 C-1.33650177 37.47149124 -1.30581604 36.36876373 -1.27420044 35.23262024 C-1.16976242 31.71597434 -1.02295187 28.20255779 -0.875 24.6875 C-0.79668104 22.3015225 -0.72112725 19.91545251 -0.6484375 17.52929688 C-0.46434614 11.68474625 -0.24546219 5.8422775 0 0 Z " fill="#3DBBD6" transform="translate(45,40)"/>
<path d="M0 0 C1.12588014 0.95729916 2.2506715 1.91587895 3.375 2.875 C4.00148438 3.40867187 4.62796875 3.94234375 5.2734375 4.4921875 C6.55836651 5.61432007 7.79371975 6.79371975 9 8 C8.64877531 11.7154444 7.39544471 14.45005843 5.53125 17.64453125 C5.04269531 18.48564453 4.55414063 19.32675781 4.05078125 20.19335938 C3.53902344 21.05767578 3.02726562 21.92199219 2.5 22.8125 C1.98824219 23.69615234 1.47648437 24.57980469 0.94921875 25.49023438 C-1.8434496 30.26134983 -1.8434496 30.26134983 -3 32 C-3.33 32 -3.66 32 -4 32 C-3.67 29.69 -3.34 27.38 -3 25 C-2.01 24.67 -1.02 24.34 0 24 C0 22.35 0 20.7 0 19 C0.99 19 1.98 19 3 19 C3.73832608 14.67551867 4.39174965 10.34464536 5 6 C4.360625 5.7525 3.72125 5.505 3.0625 5.25 C1 4 1 4 0.37109375 1.921875 C0.24863281 1.28765625 0.12617187 0.6534375 0 0 Z " fill="#50B9D3" transform="translate(70,112)"/>
<path d="M0 0 C0.66 0.33 1.32 0.66 2 1 C0.41037341 5.03520597 -1.28232318 9.01811282 -3 13 C-1.02 12.67 0.96 12.34 3 12 C3.33 12.99 3.66 13.98 4 15 C-0.05431692 16.15837626 -2.21812119 15.83691257 -6 14 C-6 14.66 -6 15.32 -6 16 C-7.32 16.33 -8.64 16.66 -10 17 C-10 16.01 -10 15.02 -10 14 C-9.34 13.67 -8.68 13.34 -8 13 C-7.34 12.01 -6.68 11.02 -6 10 C-5.2884375 9.38125 -5.2884375 9.38125 -4.5625 8.75 C-2.23426185 6.14237327 -1.28471234 3.24236923 0 0 Z " fill="#36BDE6" transform="translate(58,153)"/>
<path d="M0 0 C0.33 0.66 0.66 1.32 1 2 C1.99 2.33 2.98 2.66 4 3 C4 4.32 4 5.64 4 7 C5.65 7.33 7.3 7.66 9 8 C9.33 9.32 9.66 10.64 10 12 C10.99 12 11.98 12 13 12 C13.33 13.98 13.66 15.96 14 18 C8.12580856 13.07380487 2.70244434 8.09576118 -2 2 C-1.34 2 -0.68 2 0 2 C0 1.34 0 0.68 0 0 Z " fill="#4CC2D7" transform="translate(70,49)"/>
<path d="M0 0 C0.33 0 0.66 0 1 0 C1 13.53 1 27.06 1 41 C1.99 41.33 2.98 41.66 4 42 C4 42.66 4 43.32 4 44 C4.99 44 5.98 44 7 44 C6.67 44.99 6.34 45.98 6 47 C0.35953355 43.39257365 0.35953355 43.39257365 -0.53631592 39.92269897 C-0.69385348 37.37119466 -0.67454828 34.87913401 -0.5859375 32.32421875 C-0.57744781 31.3990596 -0.56895813 30.47390045 -0.56021118 29.52070618 C-0.52670961 26.57510329 -0.4514376 23.63227072 -0.375 20.6875 C-0.34489615 18.68688859 -0.31752108 16.68623412 -0.29296875 14.68554688 C-0.22692892 9.78930242 -0.12343033 4.89512034 0 0 Z " fill="#E8FDFE" transform="translate(48,48)"/>
<path d="M0 0 C1.32 0.33 2.64 0.66 4 1 C4 1.66 4 2.32 4 3 C4.66 3 5.32 3 6 3 C7.38232443 4.62626404 8.71937515 6.2925002 10 8 C9.67 8.66 9.34 9.32 9 10 C6.69 9.67 4.38 9.34 2 9 C2 7.35 2 5.7 2 4 C1.34 4 0.68 4 0 4 C0 2.68 0 1.36 0 0 Z " fill="#2CC1E4" transform="translate(130,106)"/>
<path d="M0 0 C1.22419163 3.93795909 0.48320272 6.16112237 -1 10 C0.32 10.33 1.64 10.66 3 11 C-0.44069624 13.29379749 -1.72290301 14 -6 14 C-5.41892368 10.2397015 -4.34800504 7.46964968 -2.4375 4.1875 C-1.98246094 3.39730469 -1.52742188 2.60710937 -1.05859375 1.79296875 C-0.53458984 0.90544922 -0.53458984 0.90544922 0 0 Z " fill="#D0F8FB" transform="translate(61,152)"/>
<path d="M0 0 C5.66129431 4.69766975 10.85228904 9.74723372 16 15 C15.01 15.33 14.02 15.66 13 16 C13 15.34 13 14.68 13 14 C11.68 13.34 10.36 12.68 9 12 C9 11.34 9 10.68 9 10 C8.01 10 7.02 10 6 10 C5.67 8.68 5.34 7.36 5 6 C4.34 6 3.68 6 3 6 C3 5.34 3 4.68 3 4 C2.01 3.67 1.02 3.34 0 3 C0 2.01 0 1.02 0 0 Z " fill="#4EBBD0" transform="translate(54,96)"/>
<path d="M0 0 C2.31 0 4.62 0 7 0 C4.71625089 2.28374911 2.47001121 3.47452482 -0.375 5 C-1.33148438 5.515625 -2.28796875 6.03125 -3.2734375 6.5625 C-5.5026988 7.73781255 -7.73970508 8.88592099 -10 10 C-10 8.68 -10 7.36 -10 6 C-9.36191406 5.73445313 -8.72382813 5.46890625 -8.06640625 5.1953125 C-7.24011719 4.84210938 -6.41382813 4.48890625 -5.5625 4.125 C-4.73878906 3.77695313 -3.91507813 3.42890625 -3.06640625 3.0703125 C-0.84253285 2.1755063 -0.84253285 2.1755063 0 0 Z " fill="#43BED1" transform="translate(138,87)"/>
<path d="M0 0 C0.33 0.66 0.66 1.32 1 2 C-4 5 -4 5 -9 8 C-10.27810547 8.87205078 -10.27810547 8.87205078 -11.58203125 9.76171875 C-14 11 -14 11 -18 10 C-12.06 6.7 -6.12 3.4 0 0 Z " fill="#50BBCD" transform="translate(79,154)"/>
<path d="M0 0 C0.99 0 1.98 0 3 0 C3.33 0.66 3.66 1.32 4 2 C4.66 2 5.32 2 6 2 C6.625 4.375 6.625 4.375 7 7 C6.34 7.66 5.68 8.32 5 9 C2.5 6.75 2.5 6.75 0 4 C0 2.68 0 1.36 0 0 Z " fill="#33BDED" transform="translate(105,80)"/>
<path d="M0 0 C0.33 0.66 0.66 1.32 1 2 C1.99 2.33 2.98 2.66 4 3 C4 4.32 4 5.64 4 7 C5.32 7 6.64 7 8 7 C8 8.65 8 10.3 8 12 C0.51708428 5.84965831 0.51708428 5.84965831 -2 2 C-1.34 2 -0.68 2 0 2 C0 1.34 0 0.68 0 0 Z " fill="#4CC2D7" transform="translate(86,65)"/>
<path d="M0 0 C0 0.99 0 1.98 0 3 C-0.66 3 -1.32 3 -2 3 C-2 3.66 -2 4.32 -2 5 C-2.804375 5.28875 -3.60875 5.5775 -4.4375 5.875 C-7.1326468 6.73262568 -7.1326468 6.73262568 -8 9 C-9.98 9 -11.96 9 -14 9 C-9.7045025 5.25876024 -5.00099548 2.65848126 0 0 Z " fill="#50BDD3" transform="translate(94,145)"/>
<path d="M0 0 C0.33 0 0.66 0 1 0 C1.37090206 5.06899479 0.47974806 8.55355521 -2 13 C-3.65 13.66 -5.3 14.32 -7 15 C-3.535 7.575 -3.535 7.575 0 0 Z " fill="#D9FBFD" transform="translate(79,120)"/>
<path d="M0 0 C-0.5625 1.9375 -0.5625 1.9375 -2 4 C-5.625 4.75 -5.625 4.75 -9 5 C-9 4.01 -9 3.02 -9 2 C-5.62902617 0.50178941 -3.79557881 0 0 0 Z " fill="#34BBED" transform="translate(145,82)"/>
<path d="M0 0 C1.98 0 3.96 0 6 0 C-3.42857143 8 -3.42857143 8 -8 8 C-8 7.01 -8 6.02 -8 5 C-5.36 3.68 -2.72 2.36 0 1 C0 0.67 0 0.34 0 0 Z " fill="#D0F9FD" transform="translate(78,151)"/>
<path d="M0 0 C0.8353125 0.37125 0.8353125 0.37125 1.6875 0.75 C1.6875 1.74 1.6875 2.73 1.6875 3.75 C-0.2925 4.74 -0.2925 4.74 -2.3125 5.75 C-2.3125 5.09 -2.3125 4.43 -2.3125 3.75 C-3.9625 3.75 -5.6125 3.75 -7.3125 3.75 C-2.88173077 -0.31153846 -2.88173077 -0.31153846 0 0 Z " fill="#3FBEDB" transform="translate(177.3125,98.25)"/>
<path d="M0 0 C3.44536172 0.25521198 4.18975817 1.21289941 6.5625 3.875 C7.366875 4.90625 8.17125 5.9375 9 7 C9.98290968 8.01680311 10.97334787 9.02738219 12 10 C9.5625 9.1875 9.5625 9.1875 7 8 C6.67 7.01 6.34 6.02 6 5 C5.01 5 4.02 5 3 5 C3 4.34 3 3.68 3 3 C2.01 3 1.02 3 0 3 C0 2.01 0 1.02 0 0 Z " fill="#C5F6FA" transform="translate(48,33)"/>
<path d="M0 0 C1.32 0 2.64 0 4 0 C3.67 1.32 3.34 2.64 3 4 C1.35 4 -0.3 4 -2 4 C-1.34 2.68 -0.68 1.36 0 0 Z M-4 4 C-3.34 4 -2.68 4 -2 4 C-2 4.99 -2 5.98 -2 7 C-3.32 6.67 -4.64 6.34 -6 6 C-5.34 5.34 -4.68 4.68 -4 4 Z " fill="#35BCEA" transform="translate(140,121)"/>
<path d="M0 0 C0.66 0.33 1.32 0.66 2 1 C1.34 3.64 0.68 6.28 0 9 C-1.32 8.01 -2.64 7.02 -4 6 C-3.6875 4.125 -3.6875 4.125 -3 2 C-2.01 1.34 -1.02 0.68 0 0 Z " fill="#CDF7FC" transform="translate(132,94)"/>
<path d="M0 0 C1.98 0 3.96 0 6 0 C6.33 0.99 6.66 1.98 7 3 C3.71303767 3.79953138 2.28976808 4.09658936 -1 3 C-0.67 2.01 -0.34 1.02 0 0 Z " fill="#26C5EA" transform="translate(142,118)"/>
<path d="M0 0 C0.66 0.33 1.32 0.66 2 1 C0.41037341 5.03520597 -1.28232318 9.01811282 -3 13 C-4.1875 11.3125 -4.1875 11.3125 -5 9 C-3.75 6.5 -3.75 6.5 -2 4 C-1.31903578 2.67391178 -0.64669414 1.34313399 0 0 Z " fill="#44B7D1" transform="translate(58,153)"/>
<path d="M0 0 C-7.71428571 6 -7.71428571 6 -11 6 C-10.67 5.01 -10.34 4.02 -10 3 C-9.34 3 -8.68 3 -8 3 C-8 2.34 -8 1.68 -8 1 C-5.07175348 0.02391783 -3.04386724 -0.08226668 0 0 Z " fill="#D5F9FE" transform="translate(162,106)"/>
<path d="M0 0 C-1.62170379 1.00533667 -3.24747237 2.00411907 -4.875 3 C-6.23238281 3.8353125 -6.23238281 3.8353125 -7.6171875 4.6875 C-10 6 -10 6 -12 6 C-12 5.34 -12 4.68 -12 4 C-11.34 4 -10.68 4 -10 4 C-10 3.34 -10 2.68 -10 2 C-3.375 -1.125 -3.375 -1.125 0 0 Z " fill="#D0FAFC" transform="translate(175,99)"/>
<path d="M0 0 C1.1446875 0.3403125 1.1446875 0.3403125 2.3125 0.6875 C-2.83035714 5.11607143 -2.83035714 5.11607143 -6.6875 5.6875 C-5.36299661 1.71398982 -4.47633997 -0.52050465 0 0 Z " fill="#D6F7FD" transform="translate(126.6875,124.3125)"/>
<path d="M0 0 C1.98 0 3.96 0 6 0 C6 0.99 6 1.98 6 3 C6.66 3 7.32 3 8 3 C7.67 4.32 7.34 5.64 7 7 C5.83040013 6.02433888 4.66438823 5.044375 3.5 4.0625 C2.8503125 3.51722656 2.200625 2.97195312 1.53125 2.41015625 C1.0259375 1.94480469 0.520625 1.47945313 0 1 C0 0.67 0 0.34 0 0 Z " fill="#4DC0D8" transform="translate(124,107)"/>
<path d="M0 0 C0 0.99 0 1.98 0 3 C-0.99 3 -1.98 3 -3 3 C-3 3.66 -3 4.32 -3 5 C-4.75 6.0625 -4.75 6.0625 -7 7 C-8.32 6.67 -9.64 6.34 -11 6 C-7.37 4.02 -3.74 2.04 0 0 Z " fill="#4DBED1" transform="translate(169,102)"/>
<path d="M0 0 C0.66 0.33 1.32 0.66 2 1 C1.19185349 2.33597652 0.37836819 3.668725 -0.4375 5 C-0.88996094 5.7425 -1.34242187 6.485 -1.80859375 7.25 C-2.20175781 7.8275 -2.59492187 8.405 -3 9 C-3.33 9 -3.66 9 -4 9 C-3.6875 5.625 -3.6875 5.625 -3 2 C-2.01 1.34 -1.02 0.68 0 0 Z " fill="#5BBEDB" transform="translate(70,135)"/>
<path d="M0 0 C1.32 0.33 2.64 0.66 4 1 C4 1.66 4 2.32 4 3 C5.32 3.33 6.64 3.66 8 4 C7.67 5.32 7.34 6.64 7 8 C5.83035398 6.8572081 4.66435444 5.71068285 3.5 4.5625 C2.8503125 3.92441406 2.200625 3.28632812 1.53125 2.62890625 C0 1 0 1 0 0 Z " fill="#CEF7FD" transform="translate(134,105)"/>
<path d="M0 0 C2.475 0.495 2.475 0.495 5 1 C5 1.66 5 2.32 5 3 C5.66 3 6.32 3 7 3 C7.33 4.65 7.66 6.3 8 8 C6.85073734 7.04578192 5.70569459 6.08647955 4.5625 5.125 C3.92441406 4.59132813 3.28632812 4.05765625 2.62890625 3.5078125 C1 2 1 2 0 0 Z " fill="#D5FAFE" transform="translate(56,97)"/>
<path d="M0 0 C0 0.66 0 1.32 0 2 C-4.455 2.495 -4.455 2.495 -9 3 C-9.33 2.34 -9.66 1.68 -10 1 C-6.61981469 -0.04005702 -3.5219721 -0.08004482 0 0 Z " fill="#27C3D8" transform="translate(71,164)"/>
<path d="M0 0 C0 0.99 0 1.98 0 3 C-5.2734375 6.22265625 -5.2734375 6.22265625 -7 7 C-7.66 6.67 -8.32 6.34 -9 6 C-6.45543849 3.03134491 -3.51005335 1.6380249 0 0 Z " fill="#4BBCD1" transform="translate(124,128)"/>
<path d="M0 0 C0.99 0 1.98 0 3 0 C2.67 2.97 2.34 5.94 2 9 C-0.29013653 5.5647952 -0.17842973 4.014669 0 0 Z " fill="#24C5E2" transform="translate(42,32)"/>
<path d="M0 0 C0.99 0 1.98 0 3 0 C3.33 1.65 3.66 3.3 4 5 C1.03 4.505 1.03 4.505 -2 4 C-1.34 2.68 -0.68 1.36 0 0 Z " fill="#24C6DF" transform="translate(69,124)"/>
<path d="M0 0 C1.98 1.65 3.96 3.3 6 5 C5.67 6.32 5.34 7.64 5 9 C4.67 8.01 4.34 7.02 4 6 C3.01 6 2.02 6 1 6 C0.67 4.02 0.34 2.04 0 0 Z " fill="#CAF7FB" transform="translate(130,113)"/>
<path d="M0 0 C1.14926266 0.95421808 2.29430541 1.91352045 3.4375 2.875 C4.07558594 3.40867187 4.71367188 3.94234375 5.37109375 4.4921875 C7 6 7 6 8 8 C4.82461668 7.65978036 3.97723135 6.97533396 1.75 4.5625 C0 2 0 2 0 0 Z " fill="#4FBAD3" transform="translate(46,88)"/>
<path d="M0 0 C-5.445 2.475 -5.445 2.475 -11 5 C-10 2 -10 2 -7.1875 0.25 C-4 -1 -4 -1 0 0 Z " fill="#41C1D0" transform="translate(156,82)"/>
<path d="M0 0 C-1.65 1.32 -3.3 2.64 -5 4 C-6.32 3.34 -7.64 2.68 -9 2 C-5.86501708 0.14223235 -3.62528568 -0.20140476 0 0 Z " fill="#C9F6FC" transform="translate(151,112)"/>
<path d="M0 0 C1.32 0.33 2.64 0.66 4 1 C4 1.66 4 2.32 4 3 C5.32 3.66 6.64 4.32 8 5 C6.02 5 4.04 5 2 5 C1.34 3.35 0.68 1.7 0 0 Z " fill="#D5F9FB" transform="translate(158,84)"/>
<path d="M0 0 C0 0.66 0 1.32 0 2 C-2.375 2.625 -2.375 2.625 -5 3 C-5.66 2.34 -6.32 1.68 -7 1 C-3.375 -1.125 -3.375 -1.125 0 0 Z " fill="#4CBFD7" transform="translate(62,166)"/>
<path d="M0 0 C1.32 0 2.64 0 4 0 C3.67 1.32 3.34 2.64 3 4 C1.68 4 0.36 4 -1 4 C-0.67 2.68 -0.34 1.36 0 0 Z " fill="#22C5E7" transform="translate(89,150)"/>
<path d="M0 0 C1.670625 0.061875 1.670625 0.061875 3.375 0.125 C1.6875 1.6875 1.6875 1.6875 -0.625 3.125 C-3.375 2.8125 -3.375 2.8125 -5.625 2.125 C-3.625 0.125 -3.625 0.125 0 0 Z " fill="#E9FAFE" transform="translate(130.625,121.875)"/>
<path d="M0 0 C1.98 0.66 3.96 1.32 6 2 C6 3.32 6 4.64 6 6 C3.97945196 4.35830472 1.97956942 2.69088222 0 1 C0 0.67 0 0.34 0 0 Z " fill="#D8FBFE" transform="translate(64,105)"/>
<path d="M0 0 C0.8353125 0.37125 0.8353125 0.37125 1.6875 0.75 C-0.67218744 2.84749995 -1.85866994 3.71905704 -5.0625 3.9375 C-6.17625 3.8446875 -6.17625 3.8446875 -7.3125 3.75 C-2.88173077 -0.31153846 -2.88173077 -0.31153846 0 0 Z " fill="#D1F5FD" transform="translate(155.3125,82.25)"/>
<path d="M0 0 C1.65 0 3.3 0 5 0 C5.33 1.98 5.66 3.96 6 6 C3.97945196 4.35830472 1.97956942 2.69088222 0 1 C0 0.67 0 0.34 0 0 Z " fill="#58C5DA" transform="translate(62,45)"/>
<path d="M0 0 C0.33 0.66 0.66 1.32 1 2 C0.22265625 3.7265625 0.22265625 3.7265625 -0.9375 5.625 C-1.618125 6.73875 -2.29875 7.8525 -3 9 C-3.93423645 5.98968256 -4.04449911 5.13349732 -3 2 C-2.01 1.34 -1.02 0.68 0 0 Z " fill="#43B9CF" transform="translate(64,145)"/>
<path d="M0 0 C2.97 1.98 2.97 1.98 6 4 C2.71023192 5.09658936 1.28696233 4.79953138 -2 4 C-1.34 2.68 -0.68 1.36 0 0 Z " fill="#E1F8FC" transform="translate(124,108)"/>
</svg>
